<?xml version="1.0" standalone="no"?>
<!DOCTYPE svg PUBLIC "-//W3C//DTD SVG 1.1//EN"
"http://www.w3.org/Graphics/SVG/1.1/DTD/svg11.dtd">

<svg width="356" height="576" view_box="0 0 356 576"
xmlns="http://www.w3.org/2000/svg"
xmlns:link="http://www.w3.org/1999/xlink">\n\n<desc>Généré par Mocodo 2.3.7 le Tue, 09 Feb 2021 01:06:04</desc>

<rect id="frame" x="0" y="0" width="356" height="576" fill="#ffffbf" stroke="none" stroke-width="0"/>

<!-- Association has -->
<line x1="182" y1="119" x2="300" y2="119" stroke="#f46d43" stroke-width="2"/>
<text x="238" y="136.0" fill="#1a9850" font-family="Verdana" font-size="12">1,1</text>
<line x1="300" y1="339" x2="300" y2="119" stroke="#f46d43" stroke-width="2"/>
<text x="305.0" y="306" fill="#1a9850" font-family="Verdana" font-size="12">0,N</text>
<g id="association-has">
	<path d="M 304 94 a 14 14 90 0 1 14 14 V 119 h -36 V 108 a 14 14 90 0 1 14 -14" fill="#fdae61" stroke="#fdae61" stroke-width="0"/>
	<path d="M 318 119.0 v 11 a 14 14 90 0 1 -14 14 H 296 a 14 14 90 0 1 -14 -14 V 119.0 H 36" fill="#fee08b" stroke="#fee08b" stroke-width="0"/>
	<rect x="282" y="94" width="36" height="50" fill="none" rx="14" stroke="#f46d43" stroke-width="2"/>
	<line x1="282" y1="119" x2="318" y2="119" stroke="#f46d43" stroke-width="1"/>
	<text x="289" y="111.7" fill="#000000" font-family="Verdana" font-size="12">has</text>
</g>

<!-- Association own -->
<line x1="60" y1="339" x2="60" y2="119" stroke="#f46d43" stroke-width="2"/>
<text x="65.0" y="246" fill="#1a9850" font-family="Verdana" font-size="12">0,1</text>
<line x1="182" y1="119" x2="60" y2="119" stroke="#f46d43" stroke-width="2"/>
<text x="105" y="136.0" fill="#1a9850" font-family="Verdana" font-size="12">1,1</text>
<g id="association-own">
	<path d="M 66 94 a 14 14 90 0 1 14 14 V 119 h -40 V 108 a 14 14 90 0 1 14 -14" fill="#fdae61" stroke="#fdae61" stroke-width="0"/>
	<path d="M 80 119.0 v 11 a 14 14 90 0 1 -14 14 H 54 a 14 14 90 0 1 -14 -14 V 119.0 H 40" fill="#fee08b" stroke="#fee08b" stroke-width="0"/>
	<rect x="40" y="94" width="40" height="50" fill="none" rx="14" stroke="#f46d43" stroke-width="2"/>
	<line x1="40" y1="119" x2="80" y2="119" stroke="#f46d43" stroke-width="1"/>
	<text x="47" y="111.7" fill="#000000" font-family="Verdana" font-size="12">own</text>
</g>

<!-- Association belongs to -->
<line x1="182" y1="508" x2="182" y2="339" stroke="#f46d43" stroke-width="2"/>
<text x="187.0" y="441" fill="#1a9850" font-family="Verdana" font-size="12">1,1</text>
<line x1="182" y1="119" x2="182" y2="339" stroke="#f46d43" stroke-width="2"/>
<text x="187.0" y="246" fill="#1a9850" font-family="Verdana" font-size="12">0,N</text>
<g id="association-belongs to">
	<path d="M 207 314 a 14 14 90 0 1 14 14 V 339 h -78 V 328 a 14 14 90 0 1 14 -14" fill="#fdae61" stroke="#fdae61" stroke-width="0"/>
	<path d="M 221 339.0 v 11 a 14 14 90 0 1 -14 14 H 157 a 14 14 90 0 1 -14 -14 V 339.0 H 78" fill="#fee08b" stroke="#fee08b" stroke-width="0"/>
	<rect x="143" y="314" width="78" height="50" fill="none" rx="14" stroke="#f46d43" stroke-width="2"/>
	<line x1="143" y1="339" x2="221" y2="339" stroke="#f46d43" stroke-width="1"/>
	<text x="150" y="331.7" fill="#000000" font-family="Verdana" font-size="12">belongs to</text>
</g>

<!-- Association take -->
<line x1="60" y1="339" x2="60" y2="508" stroke="#f46d43" stroke-width="2"/>
<text x="65.0" y="441" fill="#1a9850" font-family="Verdana" font-size="12">0,N</text>
<line x1="182" y1="508" x2="60" y2="508" stroke="#f46d43" stroke-width="2"/>
<text x="103" y="525.0" fill="#1a9850" font-family="Verdana" font-size="12">0,1</text>
<g id="association-take">
	<path d="M 67 483 a 14 14 90 0 1 14 14 V 508 h -42 V 497 a 14 14 90 0 1 14 -14" fill="#fdae61" stroke="#fdae61" stroke-width="0"/>
	<path d="M 81 508.0 v 11 a 14 14 90 0 1 -14 14 H 53 a 14 14 90 0 1 -14 -14 V 508.0 H 42" fill="#fee08b" stroke="#fee08b" stroke-width="0"/>
	<rect x="39" y="483" width="42" height="50" fill="none" rx="14" stroke="#f46d43" stroke-width="2"/>
	<line x1="39" y1="508" x2="81" y2="508" stroke="#f46d43" stroke-width="1"/>
	<text x="46" y="500.7" fill="#000000" font-family="Verdana" font-size="12">take</text>
</g>

<!-- Entity CUISINETYPE -->
<g id="entity-CUISINETYPE">
	<g id="frame-CUISINETYPE">
		<rect x="253" y="314" width="94" height="25" fill="#a6d96a" stroke="#a6d96a" stroke-width="0"/>
		<rect x="253" y="339.0" width="94" height="25" fill="#d9ef8b" stroke="#d9ef8b" stroke-width="0"/>
		<rect x="253" y="314" width="94" height="50" fill="none" stroke="#66bd63" stroke-width="2"/>
		<line x1="253" y1="339" x2="347" y2="339" stroke="#66bd63" stroke-width="1"/>
	</g>
	<text x="258" y="331.7" fill="#000000" font-family="Verdana" font-size="12">CUISINETYPE</text>
	<text x="258" y="356.8" fill="#000000" font-family="Verdana" font-size="12">name</text>
</g>

<!-- Entity TICKET -->
<g id="entity-TICKET">
	<g id="frame-TICKET">
		<rect x="129" y="449" width="106" height="25" fill="#a6d96a" stroke="#a6d96a" stroke-width="0"/>
		<rect x="129" y="474.0" width="106" height="93" fill="#d9ef8b" stroke="#d9ef8b" stroke-width="0"/>
		<rect x="129" y="449" width="106" height="118" fill="none" stroke="#66bd63" stroke-width="2"/>
		<line x1="129" y1="474" x2="235" y2="474" stroke="#66bd63" stroke-width="1"/>
	</g>
	<text x="159" y="466.7" fill="#000000" font-family="Verdana" font-size="12">TICKET</text>
	<text x="134" y="491.7" fill="#000000" font-family="Verdana" font-size="12">guest</text>
	<text x="134" y="508.8" fill="#000000" font-family="Verdana" font-size="12">name</text>
	<text x="134" y="525.8" fill="#000000" font-family="Verdana" font-size="12">comment</text>
	<text x="134" y="542.8" fill="#000000" font-family="Verdana" font-size="12">estimated_time</text>
	<text x="134" y="559.8" fill="#000000" font-family="Verdana" font-size="12">status</text>
</g>

<!-- Entity USER -->
<g id="entity-USER">
	<g id="frame-USER">
		<rect x="9" y="254" width="102" height="25" fill="#a6d96a" stroke="#a6d96a" stroke-width="0"/>
		<rect x="9" y="279.0" width="102" height="145" fill="#d9ef8b" stroke="#d9ef8b" stroke-width="0"/>
		<rect x="9" y="254" width="102" height="170" fill="none" stroke="#66bd63" stroke-width="2"/>
		<line x1="9" y1="279" x2="111" y2="279" stroke="#66bd63" stroke-width="1"/>
	</g>
	<text x="43" y="271.7" fill="#000000" font-family="Verdana" font-size="12">USER</text>
	<text x="14" y="296.7" fill="#000000" font-family="Verdana" font-size="12">email</text>
	<text x="14" y="313.7" fill="#000000" font-family="Verdana" font-size="12">firstname</text>
	<text x="14" y="330.7" fill="#000000" font-family="Verdana" font-size="12">lastname</text>
	<text x="14" y="347.8" fill="#000000" font-family="Verdana" font-size="12">password</text>
	<text x="14" y="364.8" fill="#000000" font-family="Verdana" font-size="12">phone_number</text>
	<text x="14" y="381.8" fill="#000000" font-family="Verdana" font-size="12">avatar</text>
	<text x="14" y="398.8" fill="#000000" font-family="Verdana" font-size="12">role</text>
	<text x="14" y="415.8" fill="#000000" font-family="Verdana" font-size="12">favorite</text>
</g>

<!-- Entity RESTAURANT -->
<g id="entity-RESTAURANT">
	<g id="frame-RESTAURANT">
		<rect x="131" y="9" width="102" height="25" fill="#a6d96a" stroke="#a6d96a" stroke-width="0"/>
		<rect x="131" y="34.0" width="102" height="195" fill="#d9ef8b" stroke="#d9ef8b" stroke-width="0"/>
		<rect x="131" y="9" width="102" height="220" fill="none" stroke="#66bd63" stroke-width="2"/>
		<line x1="131" y1="34" x2="233" y2="34" stroke="#66bd63" stroke-width="1"/>
	</g>
	<text x="141" y="26.7" fill="#000000" font-family="Verdana" font-size="12">RESTAURANT</text>
	<text x="136" y="51.7" fill="#000000" font-family="Verdana" font-size="12">name</text>
	<text x="136" y="68.7" fill="#000000" font-family="Verdana" font-size="12">adress</text>
	<text x="136" y="85.7" fill="#000000" font-family="Verdana" font-size="12">zip</text>
	<text x="136" y="102.7" fill="#000000" font-family="Verdana" font-size="12">city</text>
	<text x="136" y="119.8" fill="#000000" font-family="Verdana" font-size="12">phone_number</text>
	<text x="136" y="136.8" fill="#000000" font-family="Verdana" font-size="12">picture</text>
	<text x="136" y="153.8" fill="#000000" font-family="Verdana" font-size="12">time_interval</text>
	<text x="136" y="170.8" fill="#000000" font-family="Verdana" font-size="12">status</text>
	<text x="136" y="187.8" fill="#000000" font-family="Verdana" font-size="12">siret</text>
	<text x="136" y="204.8" fill="#000000" font-family="Verdana" font-size="12">trade_name</text>
	<text x="136" y="221.8" fill="#000000" font-family="Verdana" font-size="12">slug</text>
</g>
</svg>